<?xml version="1.0" encoding="utf-8"?>
<!-- Generator: Adobe Illustrator 19.1.0, SVG Export Plug-In . SVG Version: 6.00 Build 0)  -->
<svg version="1.1" id="Layer_1" xmlns="http://www.w3.org/2000/svg" xmlns:xlink="http://www.w3.org/1999/xlink" x="0px" y="0px"
	 viewBox="-487 489 24 24" style="enable-background:new -487 489 24 24;" xml:space="preserve">
<style type="text/css">
	.st0{fill:#F2C040;}
</style>
<path class="st0" d="M-475,496c-2.8,0-5,2.2-5,5s2.2,5,5,5s5-2.2,5-5S-472.2,496-475,496z M-475,491c-5.5,0-10,4.5-10,10
	s4.5,10,10,10s10-4.5,10-10S-469.5,491-475,491z M-475,509c-4.4,0-8-3.6-8-8s3.6-8,8-8s8,3.6,8,8S-470.6,509-475,509z"/>
</svg>
