<?xml version="1.0" encoding="utf-8"?>
<!-- Generator: Adobe Illustrator 19.1.0, SVG Export Plug-In . SVG Version: 6.00 Build 0)  -->
<svg version="1.1" id="Layer_1" xmlns="http://www.w3.org/2000/svg" xmlns:xlink="http://www.w3.org/1999/xlink" x="0px" y="0px"
	 viewBox="0 0 32 32" style="enable-background:new 0 0 32 32;" xml:space="preserve">
<style type="text/css">
	.st0{fill:#F2BF3E;}
</style>
<g>
	<path class="st0" d="M32,6.1c-0.9,1.3-2,2.5-3.3,3.4c0,0.2,0,0.5,0,0.9c0,1.8-0.3,3.5-0.8,5.3c-0.5,1.8-1.3,3.4-2.3,5
		c-1,1.6-2.3,3-3.7,4.3c-1.4,1.2-3.2,2.2-5.2,3c-2,0.7-4.2,1.1-6.6,1.1C6.4,29,3,28,0,26.1c0.5,0.1,1,0.1,1.6,0.1
		c3,0,5.8-0.9,8.1-2.8c-1.4,0-2.7-0.5-3.8-1.3c-1.1-0.8-1.9-1.9-2.3-3.2c0.4,0.1,0.9,0.1,1.2,0.1c0.6,0,1.2-0.1,1.7-0.2
		c-1.5-0.3-2.8-1.1-3.8-2.3s-1.5-2.6-1.5-4.2v-0.1c0.9,0.5,1.9,0.8,3,0.8c-0.9-0.6-1.6-1.4-2.1-2.3c-0.5-1-0.8-2-0.8-3.1
		c0-1.2,0.3-2.3,0.9-3.3c1.6,2,3.6,3.6,6,4.8c2.3,1.2,4.9,1.9,7.5,2c-0.1-0.5-0.2-1-0.2-1.5c0-1.8,0.6-3.4,1.9-4.6
		C18.8,3.6,20.3,3,22.2,3c1.9,0,3.5,0.7,4.8,2.1c1.5-0.3,2.9-0.8,4.2-1.6c-0.5,1.6-1.5,2.8-2.9,3.6C29.5,7,30.7,6.6,32,6.1z"/>
</g>
</svg>
