<?xml version="1.0" encoding="utf-8"?>
<!-- Generator: Adobe Illustrator 19.1.0, SVG Export Plug-In . SVG Version: 6.00 Build 0)  -->
<svg version="1.1" id="Layer_1" xmlns="http://www.w3.org/2000/svg" xmlns:xlink="http://www.w3.org/1999/xlink" x="0px" y="0px"
	 viewBox="0 0 32 32" style="enable-background:new 0 0 32 32;" xml:space="preserve">
<style type="text/css">
	.st0{fill:#F2BF3E;}
</style>
<g>
	<path class="st0" d="M29.2,22.8c0,2.8-0.2,4.9-0.5,6.2c-0.2,0.7-0.5,1.3-1,1.8c-0.5,0.5-1.1,0.8-1.8,0.8C23.7,31.9,20.4,32,16,32
		c-4.4,0-7.7-0.1-9.9-0.4c-0.7-0.1-1.3-0.3-1.8-0.8c-0.5-0.5-0.9-1.1-1-1.8c-0.3-1.3-0.5-3.4-0.5-6.2c0-2.8,0.2-4.9,0.5-6.2
		c0.2-0.7,0.5-1.3,1-1.8c0.5-0.5,1.1-0.8,1.8-0.8c2.2-0.2,5.5-0.4,9.9-0.4c4.4,0,7.7,0.1,9.9,0.4c0.7,0.1,1.3,0.4,1.8,0.8
		c0.5,0.5,0.9,1.1,1,1.8C29.1,17.9,29.2,20,29.2,22.8z M8.4,18.3h1.9v-1.7H4.7v1.7h1.9v10.2h1.8V18.3z M11.4,0h1.8l-2.2,7.1V12H9.3
		V7.1C9.1,6.2,8.8,5,8.2,3.3C7.8,2.1,7.4,1,7,0h1.9l1.3,4.7L11.4,0z M13.6,28.5h1.6v-8.8h-1.6v6.8c-0.4,0.5-0.7,0.8-1,0.8
		c-0.2,0-0.3-0.1-0.4-0.4c0,0,0-0.2,0-0.6v-6.5h-1.6v7c0,0.6,0,1,0.1,1.3c0.1,0.4,0.5,0.7,1,0.7c0.6,0,1.2-0.4,1.8-1.1V28.5z
		 M18,5.9v3.1c0,1-0.2,1.7-0.5,2.1c-0.4,0.6-1.1,0.9-1.9,0.9c-0.8,0-1.4-0.3-1.9-0.9c-0.3-0.5-0.5-1.2-0.5-2.1V5.9
		c0-1,0.2-1.6,0.5-2.1c0.5-0.6,1.1-0.9,1.9-0.9c0.8,0,1.5,0.3,1.9,0.9C17.9,4.3,18,5,18,5.9z M16.4,9.4V5.6c0-0.8-0.3-1.2-0.8-1.2
		c-0.5,0-0.8,0.4-0.8,1.2v3.8c0,0.8,0.3,1.2,0.8,1.2C16.1,10.6,16.4,10.2,16.4,9.4z M21.2,25.9v-3.5c0-0.9-0.1-1.5-0.2-1.8
		c-0.2-0.7-0.6-1-1.3-1c-0.6,0-1.1,0.3-1.7,1v-3.9h-1.6v11.8h1.6v-0.9c0.5,0.7,1.1,1,1.7,1c0.6,0,1.1-0.3,1.3-1
		C21.2,27.3,21.2,26.7,21.2,25.9z M19.6,22.2V26c0,0.8-0.2,1.2-0.7,1.2c-0.3,0-0.5-0.1-0.8-0.4v-5.4c0.3-0.3,0.5-0.4,0.8-0.4
		C19.4,21,19.6,21.4,19.6,22.2z M24,3.1V12h-1.6v-1c-0.6,0.7-1.2,1.1-1.8,1.1c-0.5,0-0.9-0.2-1.1-0.7c-0.1-0.3-0.1-0.7-0.1-1.3v-7
		H21v6.6c0,0.4,0,0.6,0,0.6c0,0.3,0.2,0.4,0.4,0.4c0.3,0,0.7-0.3,1-0.8V3.1H24z M27.2,25.7v-0.2h-1.6c0,0.6,0,1,0,1.1
		c-0.1,0.4-0.3,0.6-0.7,0.6c-0.5,0-0.8-0.4-0.8-1.2v-1.6h3.2v-1.8c0-0.9-0.2-1.6-0.5-2.1c-0.5-0.6-1.1-0.9-1.9-0.9
		c-0.8,0-1.4,0.3-1.9,0.9c-0.3,0.4-0.5,1.1-0.5,2.1v3.1c0,0.9,0.2,1.6,0.5,2.1c0.5,0.6,1.1,0.9,1.9,0.9c0.9,0,1.5-0.3,1.9-0.9
		c0.2-0.3,0.3-0.6,0.4-1C27.2,26.6,27.2,26.3,27.2,25.7z M25.7,22.2v0.8h-1.6v-0.8c0-0.8,0.3-1.2,0.8-1.2
		C25.4,21,25.7,21.4,25.7,22.2z"/>
</g>
</svg>
