<?xml version="1.0" encoding="utf-8"?>
<!-- Generator: Adobe Illustrator 19.1.0, SVG Export Plug-In . SVG Version: 6.00 Build 0)  -->
<svg version="1.1" id="Layer_1" xmlns="http://www.w3.org/2000/svg" xmlns:xlink="http://www.w3.org/1999/xlink" x="0px" y="0px"
	 viewBox="0 0 32 32" style="enable-background:new 0 0 32 32;" xml:space="preserve">
<style type="text/css">
	.st0{fill:#F2BF3E;}
</style>
<g>
	<path class="st0" d="M29.9,8c1.4,2.5,2.1,5.1,2.1,8c0,2.9-0.7,5.6-2.1,8c-1.4,2.5-3.4,4.4-5.8,5.8c-2.5,1.4-5.1,2.1-8,2.1
		c-2.9,0-5.6-0.7-8-2.1c-2.5-1.4-4.4-3.4-5.8-5.8C0.7,21.6,0,18.9,0,16c0-2.9,0.7-5.6,2.1-8C3.6,5.5,5.5,3.6,8,2.1
		C10.4,0.7,13.1,0,16,0c2.9,0,5.6,0.7,8,2.1C26.5,3.6,28.4,5.5,29.9,8z M27.7,12.9c0-0.7-0.3-1.1-0.8-1.5c-1.7-1-3.8-1.8-6.1-2.3
		c-2.3-0.5-4.7-0.8-7.1-0.8c-2.8,0-5.4,0.3-7.6,1C5.7,9.4,5.5,9.6,5.3,9.9c-0.2,0.3-0.3,0.6-0.3,1c0,0.4,0.1,0.8,0.4,1.1
		c0.3,0.3,0.6,0.4,1.1,0.4c0.2,0,0.4-0.1,0.8-0.2c1.8-0.5,4-0.8,6.4-0.8c2.2,0,4.4,0.2,6.4,0.7c2.1,0.5,3.9,1.1,5.3,2
		c0.3,0.2,0.6,0.2,0.8,0.2c0.4,0,0.8-0.1,1.1-0.4C27.6,13.7,27.7,13.3,27.7,12.9z M25.5,18.1c0-0.6-0.2-1-0.7-1.3
		c-3.3-2-7.1-2.9-11.4-2.9c-2.1,0-4.2,0.3-6.3,0.9c-0.7,0.2-1,0.6-1,1.3c0,0.3,0.1,0.6,0.4,0.9c0.2,0.2,0.5,0.4,0.9,0.4
		c0.1,0,0.4-0.1,0.8-0.2c1.7-0.5,3.4-0.7,5.2-0.7c3.9,0,7.3,0.9,10.2,2.6c0.3,0.2,0.6,0.3,0.8,0.3c0.3,0,0.6-0.1,0.9-0.4
		C25.4,18.7,25.5,18.4,25.5,18.1z M23.5,22.5c0-0.4-0.2-0.8-0.6-1.1c-2.7-1.6-5.8-2.4-9.3-2.4c-1.8,0-3.8,0.2-6,0.7
		c-0.6,0.1-0.9,0.5-0.9,1.1c0,0.3,0.1,0.5,0.3,0.7c0.2,0.2,0.4,0.3,0.7,0.3c0.1,0,0.3-0.1,0.8-0.2c1.8-0.4,3.5-0.6,5.1-0.6
		c3.1,0,5.9,0.7,8.3,2.1c0.3,0.2,0.5,0.2,0.7,0.2c0.3,0,0.5-0.1,0.7-0.3C23.4,23.1,23.5,22.8,23.5,22.5z"/>
</g>
</svg>
